<svg id="Headgear" 
    xmlns="http://www.w3.org/2000/svg" viewBox="0 0 650 1100">
    <defs>
        <!--<style>.cls-1{fill:#e6007e;}</style>-->
    </defs>
    <g id="Pith">
        <g id="pickelhaube">
            <g id="Layer_46" data-name="Layer 46">
                <polygon id="element-Headgear-Pith-Pickelhaube-Spike-path" class="cls-1" points="324 80 325 80 325 81.01 325.99 81.01 325.99 86.03 327 86.03 327 91.01 328 91.01 328 96 329 96 329 100.98 330.01 100.98 330.01 106 328.98 106 328.98 106.96 327.01 106.96 327.01 107.97 328 107.97 328 108.99 328.98 108.99 328.98 111 328 111 328 112.99 328.98 112.99 328.98 113.99 335.01 113.99 335.01 113.01 336.97 113.01 336.97 113.99 338 113.99 338 114.98 338.98 114.98 338.98 116.98 340.03 116.98 339.98 118 338.98 118 338.98 118.99 334.97 119 334.98 118 332.98 118 332.98 117 328.98 117 328.98 118 327.97 118 327.97 119 326.98 118.99 326.98 120 327.97 120 327.97 121.99 328.98 122 328.98 123.01 329.96 123.01 329.96 125 328.98 125 328.98 125.99 327.97 125.99 327.96 127 326.98 127 326.98 127.98 325.98 127.99 325.97 129.01 324.98 129 325 130.99 324.01 130.99 324.01 128.99 323 129 323 127.98 322.01 127.99 322.01 127 321.02 126.99 321.02 125.99 320.01 126 320.01 125 318.99 125 319 123 320.01 123.01 320 122.01 321 122.01 321 120 322.01 120 322.01 118.99 321 119 321.01 118 320 117.99 320 116.98 315.98 116.98 315.98 118 313.99 118 314 118.98 310 118.99 310 118 309 118 309 117 310 117.02 310 115 311 115 311 114 312.01 114.01 312.01 113 313.99 113 313.99 113.99 320.01 114 320.01 113.01 321 113 321.01 111 320 111 320.01 109 321.01 109 321.01 108 322 108 322 107 320.01 106.99 320.01 106 319 105.99 319 101 320.01 101 320.01 96.01 321.01 96.01 321.01 91 322.01 91 322.01 86.01 323.02 85.99 323.02 81.01 324 81.01 324 80"/>
            </g>
        </g>
    </g>
</svg>