<svg id="Headgear" 
    xmlns="http://www.w3.org/2000/svg" viewBox="0 0 650 1100">
    <defs>
        <!--<style>.cls-1{fill:#e6007e;}</style>-->
    </defs>
    <g id="Pith">
        <g id="pickelhaube">
            <g id="Band">
                <polygon id="element-Headgear-Pith-Pickelhaube-Band-path" class="cls-1" points="276.57 151.47 282.45 151.47 283.54 150.55 292.44 150.55 293.49 149.5 355.52 149.5 356.45 150.49 365.68 150.49 366.36 151.47 372.48 151.47 373.53 152.56 374.38 153.41 374.38 155.5 375.46 156.35 375.46 159.53 376.45 160.52 376.45 162.51 377.52 163.44 377.52 164.69 378.44 165.37 378.44 167.59 379.57 168.43 379.57 171.53 374.58 171.53 373.7 170.69 368.45 170.69 367.75 169.56 360.52 169.56 359.55 168.47 350.53 168.47 349.62 167.59 299.69 167.59 298.32 168.35 289.5 168.35 288.66 169.4 281.53 169.4 280.68 170.37 275.53 170.37 274.56 171.53 269.56 171.53 269.56 168.38 270.57 167.51 270.57 165.65 271.46 164.41 271.46 163.56 272.57 162.4 272.57 160.99 273.49 158.97 273.49 156.51 274.56 155.42 274.56 153.41 276.57 151.47"/>
            </g>
        </g>
    </g>
</svg>