<svg id="Headgear" 
    xmlns="http://www.w3.org/2000/svg" viewBox="0 0 650 1100">
    <defs>
        <!--<style>.cls-1{fill:#e6007e;}</style>-->
    </defs>
    <g id="Pith">
        <g id="pickelhaube">
            <g id="Lining">
                <polygon id="element-Headgear-Pith-Pickelhaube-Lining-path" class="cls-1" points="278.98 199.99 274 199.99 274 199 268.01 199 268.01 198 264.01 198 264.01 197 262 197 262 196 259.99 196 259.99 195 257.99 195 257.99 193 260 193 260 191.99 262 191.99 262 191 264 191 264 189.98 267 189.98 267 189 270 189 270 188 274 188 274 186.98 277 186.98 277 192 277.99 192 277.98 196.01 278.98 196.01 279 199.02 279.99 199.02 279.99 200.99 279 200.99 278.98 199.99"/>
                <polygon id="element-Headgear-Pith-Pickelhaube-Lining-path" class="cls-1" points="370.03 199.99 375.01 199.99 375.01 199 381 199 381 198 385 198 385 197 387.01 197 387.01 196 389.02 196 389.02 195 391.02 195 391.02 193 389.01 193 389.01 191.99 387.01 191.99 387.01 191 385.01 191 385.01 189.98 382.01 189.98 382.01 189 379.01 189 379.01 188 375.01 188 375.01 186.98 372.01 186.98 372.01 192 371.02 192 371.04 196.01 370.03 196.01 370.01 199.02 369.02 199.02 369.02 200.99 370.01 200.99 370.03 199.99"/>
            </g>
        </g>
    </g>
</svg>