<svg id="Headgear" 
    xmlns="http://www.w3.org/2000/svg" viewBox="0 0 650 1100">
    <defs>
        <!--<style>.cls-1{fill:#e6007e;}</style>-->
    </defs>
    <g id="Pith">
        <g id="pickelhaube">
            <g id="Base">
                <polygon id="element-Headgear-Pith-Pickelhaube-Base-path" class="cls-1" points="374.38 153.44 374.38 155.5 374.98 155.97 374.48 154.19 374.48 153.55 374.38 153.44"/>
                <polygon id="element-Headgear-Pith-Pickelhaube-Base-path" class="cls-1" points="282.45 151.47 283.54 150.55 292.44 150.55 293.49 149.5 355.52 149.5 356.45 150.49 365.68 150.49 366.36 151.47 372.41 151.47 372.38 151.44 371.4 151.44 371.4 149.43 370.4 148.43 370.4 146.39 369.36 145.35 369.36 144.44 368.52 143.6 367.5 140.95 366.24 138.73 365.42 136.56 364.56 135.47 363.29 134.34 363.29 133.52 362.56 132.48 361.34 131.44 361.34 130.39 355.54 124.59 354.5 124.59 352.35 122.44 349.65 121.47 347.79 120.24 345.39 119.52 342.76 118.61 340.18 117.75 339.98 117.68 339.98 118 338.98 118 338.98 118.99 334.97 119 334.98 118 332.98 118 332.98 117 328.98 117 328.98 118 327.97 118 327.97 119 326.98 118.99 326.98 120 327.97 120 327.97 121.99 328.98 122 328.98 123.01 329.96 123.01 329.96 125 328.98 125 328.98 125.99 327.97 125.99 327.96 127 326.98 127 326.98 127.98 325.98 127.99 325.97 129.01 324.98 129 325 130.99 324.01 130.99 324.01 128.99 323 129 323 127.98 322.01 127.99 322.01 127 321.02 126.99 321.02 125.99 320.01 126 320.01 125 318.99 125 319 123 320.01 123.01 320 122.01 321 122.01 321 120 322.01 120 322.01 118.99 321 119 321.01 118 320 117.99 320 116.98 315.98 116.98 315.98 118 313.99 118 314 118.98 310 118.99 310 118 309 118 308.61 117.61 307.38 118.36 303.94 119.28 300.76 120.45 299.15 121.57 296.87 122.43 295.4 123.35 294.63 124.54 293.43 124.54 292.44 125.59 287.69 130.25 287.45 131.57 286.57 132.36 285.5 133.53 285.5 134.6 284.42 135.4 283.54 136.62 283.53 137.53 282.53 138.39 281.6 141.13 280.61 142.56 279.63 144.8 278.43 147.01 277.83 149.66 277.62 151.47 282.45 151.47"/>
                <polygon id="element-Headgear-Pith-Pickelhaube-Base-path" class="cls-1" points="276.03 151.99 275.36 152.15 275.36 152.59 274.86 153.12 276.03 151.99"/>
                <polygon id="element-Headgear-Pith-Pickelhaube-Base-path" class="cls-1" points="375.46 159.53 375.99 160.06 375.66 158.44 375.46 157.73 375.46 159.53"/>
                <polygon id="element-Headgear-Pith-Pickelhaube-Base-path" class="cls-1" points="376.45 162.23 376.45 162.51 377.17 163.14 376.45 162.23"/>
                <polygon id="element-Headgear-Pith-Pickelhaube-Base-path" class="cls-1" points="377.52 164.69 377.94 165 377.65 163.75 377.52 163.57 377.52 164.69"/>
                <polygon id="element-Headgear-Pith-Pickelhaube-Base-path" class="cls-1" points="378.44 167.17 378.44 167.59 379.01 168.01 378.44 167.17"/>
                <polygon id="element-Headgear-Pith-Pickelhaube-Base-path" class="cls-1" points="270.57 167.51 270.57 165.72 270.56 165.75 269.97 168.03 270.57 167.51"/>
                <polygon id="element-Headgear-Pith-Pickelhaube-Base-path" class="cls-1" points="271.46 164.1 270.74 165.42 271.46 164.41 271.46 164.1"/>
                <polygon id="element-Headgear-Pith-Pickelhaube-Base-path" class="cls-1" points="274.56 153.81 273.96 156.03 274.56 155.42 274.56 153.81"/>
                <polygon id="element-Headgear-Pith-Pickelhaube-Base-path" class="cls-1" points="273.49 157.93 272.95 160.14 273.49 158.97 273.49 157.93"/>
                <polygon id="element-Headgear-Pith-Pickelhaube-Base-path" class="cls-1" points="272.57 161.64 271.95 163.04 272.57 162.4 272.57 161.64"/>
                <polygon id="element-Headgear-Pith-Pickelhaube-Base-path" class="cls-1" points="393.39 191.21 393.39 190.4 389.33 186.34 389.33 185.37 386.37 182.41 386.37 181.38 382.42 177.43 382.42 176.48 379.49 173.56 379.49 171.53 374.58 171.53 373.7 170.69 368.45 170.69 367.75 169.56 360.52 169.56 359.55 168.47 350.53 168.47 349.62 167.59 299.69 167.59 298.32 168.35 289.5 168.35 288.66 169.4 281.53 169.4 280.68 170.37 275.53 170.37 274.56 171.53 269.65 171.53 269.65 173.41 268.52 174.41 267.39 175.61 266.5 176.47 266.5 177.59 265.44 178.44 264.6 179.47 263.39 180.51 262.36 181.79 262.36 182.52 261.51 183.59 260.48 184.41 259.41 185.67 259.41 186.5 258.55 187.48 257.42 188.45 256.48 189.62 255.56 190.31 255.56 191.57 254.54 192.33 254.54 193.57 255.43 194.45 258.53 197.55 259.4 197.55 260.89 198.64 263.12 199.39 264.65 200.5 269.95 201.28 275.17 202.21 278.97 202.98 280.99 202.98 281.01 202 279.98 202 279.98 200.99 279 200.99 278.98 199.99 274 199.99 274 199 268.01 199 268.01 198 264.01 198 264.01 197 262 197 262 196 259.99 196 259.99 195 257.99 195 257.99 193 260 193 260 191.99 262 191.99 262 191 264 191 264 189.98 267 189.98 267 189 270 189 270 188 274 188 274 186.98 277 186.98 277 186.99 278.97 186.98 278.99 185.99 281.97 185.99 282.67 185.44 289.33 184.46 293.97 183.99 293.99 182.96 309.98 182.98 309.99 182.01 339.02 181.99 339.02 182.99 355 182.98 355 184 356.8 184.13 365.67 185.16 367.02 185.94 369.98 185.94 369.98 186.97 371.97 186.97 371.97 191.85 371.07 191.85 371.07 192 372.01 192 372.01 186.98 375.01 186.98 375.01 188 379.01 188 379.01 189 382.01 189 382.01 189.98 385.01 189.98 385.01 191 387.01 191 387.01 191.99 389.01 191.99 389.01 193 391.02 193 391.02 195 389.02 195 389.02 196 387.01 196 387.01 197 385 197 385 198 381 198 381 199 375.01 199 375.01 199.99 370.03 199.99 370.01 200.99 369.02 200.99 369.02 199.02 370.01 199.02 370.03 196.02 371.04 196.02 371.04 195.9 369.98 195.9 369.98 198.99 369.01 198.99 369.01 202.01 368.05 202.01 368.05 202.98 374.22 202.98 375.19 201.76 380.14 201.76 381.3 200.66 384.32 200.66 385.64 199.34 386.12 199.83 387.54 198.41 388.57 198.41 389.63 197.35 391.33 196.87 392.23 195.65 393.52 194.62 394.35 193.46 394.35 192.5 393.39 191.21"/>
                <polygon id="element-Headgear-Pith-Pickelhaube-Base-path" class="cls-1" points="278.98 196.01 278 196 277.98 194.08 277.98 196.02 278.98 196.02 278.98 196.01"/>
                <polygon id="element-Headgear-Pith-Pickelhaube-Base-path" class="cls-1" points="279 199.02 279.99 199.02 279.99 199.01 279 199.01 279 199.02"/>
            </g>
        </g>
    </g>
</svg>