<svg id="Headgear" 
    xmlns="http://www.w3.org/2000/svg" viewBox="0 0 650 1100">
    <defs>
        <!--<style>.cls-1{fill:#e6007e;}</style>-->
    </defs>
    <g id="Visor">
        <g id="broad">
            <path id="element-Headgear-Visor-Broad-Braiding-path" class="cls-1" d="M278.08,166.24l1.47,5,.88,1.38,1,5.4,3.24,17,1.67,8.73,1.77,3.74,2.26,9.81,1.67,3.83,7,11.39,2.46,2.94,2.85,1.47,8.14,5.3L319.7,244h9.62l7.75-1.86,9.42-6,3.44-4,6.38-9.52,2.55-6.18,4-15.41,2.35-13.26,4.91-19.63.69-1.86v-2.65l2.75-2V157.5l-4.33-2.74.21,10.5L365,170.07,361,190.78l-3,15-3.93,14-6,10-1.47-.2-3.24,2.94-.59,2.26-13.64,6.68s-8.93.39-9,0S305.66,234,305.66,234l-.39-1.77s-2.75-2-2.85-2.55-1.47,0-1.47,0L294.86,220l-3.14-11.78-2.85-12.37L286,179.78l-1.18-1.57-1-8.05-1.67-1.66L281,166.92l-1.77-.78-.19-10.9-3.44,2v4l1.28,1.67,1,1Z"/>
        </g>
    </g>
</svg>