<svg id="Headgear" 
    xmlns="http://www.w3.org/2000/svg" viewBox="0 0 650 1100">
    <defs>
        <!--<style>.cls-1{fill:#e6007e;}</style>-->
    </defs>
    <g id="Visor">
        <g id="broad">
            <g id="visor-2" data-name="visor">
                <polygon id="element-Headgear-Visor-Broad-Visor-path" class="cls-1" points="279.47 164.44 279.47 166.34 281.25 166.34 284.29 170.65 284.8 171.54 286.32 171.54 287.84 172.81 289.87 174.71 295.71 175.73 296.6 176.49 300.02 176.49 302.43 177.63 346.83 177.63 348.99 176.49 352.16 176.36 354.06 175.47 355.96 175.47 358.12 174.33 359.01 174.33 360.53 173.7 360.53 172.56 361.55 172.43 362.81 171.54 364.08 171.54 365.48 169.13 366.75 168.5 366.75 167.35 367.51 167.35 367.51 166.21 369.41 166.34 369.41 162.66 367.63 162.66 367.38 161.26 357.74 161.26 355.84 160.38 292.41 160.38 291.66 161.52 281.5 161.46 281.12 162.53 279.47 162.53 279.47 164.44"/>
            </g>
        </g>
    </g>
</svg>