<svg id="Headgear" 
    xmlns="http://www.w3.org/2000/svg" viewBox="0 0 650 1100">
    <defs>
        <!--<style>.cls-1{fill:#e6007e;}</style>-->
    </defs>
    <g id="Visor">
        <g id="broad">
            <g id="Cap">
                <polygon id="element-Headgear-Visor-Broad-Cap-path" class="cls-1" points="279.14 150.18 279.14 144.54 281.88 142.32 285.29 141.29 289.74 140.27 295.55 140.27 301.19 139.41 308.54 139.41 309.73 138.39 340.67 138.39 340.67 139.41 350.75 139.41 352.97 140.44 360.83 140.44 362.71 141.29 364.76 141.46 366.48 142.32 369.38 143.51 369.38 150.18 372.97 150.18 376.9 148.13 378.95 146.42 380.83 145.91 382.54 143.17 383.74 140.61 384.59 138.39 384.59 132.92 383.39 130.87 383.05 129.53 382.33 127.35 376.62 121.54 369.77 118.53 366.14 117.39 363.44 116.46 357.53 115.52 354.11 114.59 351.61 114.59 348.61 113.34 341.65 113.34 339.37 112.2 334.7 112.2 331.87 111.37 315.61 111.37 314.26 112.51 308.66 112.62 307.41 113.45 298.7 113.55 297.25 114.48 293.51 114.59 292.26 115.52 288.94 115.63 287.08 116.46 284.48 116.56 283.45 117.49 281.58 117.39 280.33 118.43 278.36 118.74 277.53 119.36 274.73 120.5 273.59 121.44 272.65 121.44 266.33 127.56 265.39 130.78 264.46 133.37 264.46 137.93 265.5 140.01 265.5 141.46 266.43 142.29 266.43 143.54 270.48 147.38 272.65 147.48 273.59 148.62 274.32 148.72 276.18 149.55 279.14 150.18"/>
            </g>
        </g>
    </g>
</svg>