<svg id="Layer_1" data-name="Layer 1" xmlns="http://www.w3.org/2000/svg" viewBox="0 0 650 1000"><defs><style>.cls-1{fill:#fc8b8b;}</style></defs><g id="Trousers"><g id="Trousers-2" data-name="Trousers"><polygon class="cls-1" points="240.44 553.44 241.05 557.1 241.05 560.96 239.73 563.61 238.41 563.61 239.02 582.1 241.05 651.91 242.98 722.03 245.11 790.93 247.04 860.94 247.96 896 248.98 914.09 251.01 916.02 271.13 926.08 274.18 926.08 274.18 925.27 280.07 924.96 308.02 920.08 316.86 918.05 318.08 916.93 318.99 883.91 321.02 749.77 322.95 615.84 323.97 571.84 325 571.94 327.02 682.9 328.95 817.14 330.07 884.11 331.08 917.14 332.1 918.05 374.58 926.08 378.24 926.08 398.05 916.02 400.08 913.78 401 895.7 403.03 825.68 404.86 755.87 407.1 686.87 409.02 616.85 410.04 581.9 410.04 563.81 408.21 561.98 407.5 558.63 408.72 554.46 399.07 554.36 371.94 556.02 315.35 556.82 315.28 555.68 276.94 554.98 250.95 553.98 240.44 553.44"/></g></g></svg>