<svg id="Layer_1" data-name="Layer 1" xmlns="http://www.w3.org/2000/svg" viewBox="0 0 650 1000"><defs><style>.cls-1{fill:#fc8b8b;}</style></defs><g id="Trousers"><g id="Stripes"><polygon class="cls-1" points="241.98 554 241.98 559 242.95 559 242.95 581.94 244.04 581.94 243.93 616.99 245.02 616.99 245.08 651.98 245.99 651.98 245.94 686.97 247.03 686.97 247.03 721.97 247.94 721.97 247.94 755.98 248.98 755.98 248.98 790.97 249.95 790.97 249.95 825.97 250.99 825.97 250.99 860.96 252.02 860.96 252.02 895.95 252.99 895.95 252.99 916.49 250.93 916.03 249.95 914.94 249.95 896.01 249.03 896.01 249.03 860.96 248 860.96 248 825.97 247.03 825.97 247.03 790.97 245.99 790.97 245.99 755.92 245.02 755.92 245.02 721.97 243.99 721.97 243.99 686.92 242.95 686.92 242.95 651.92 241.98 651.92 241.98 616.93 241 616.93 241 581.94 239.97 581.94 239.97 562.95 241.18 560.83 241 556.99 241 554 241.98 554"/><polygon class="cls-1" points="406.95 554 406.95 559 405.98 559 405.98 581.94 404.89 581.94 405 616.99 403.92 616.99 403.86 651.98 402.94 651.98 403 686.97 401.91 686.97 401.91 721.97 400.99 721.97 400.99 755.98 399.96 755.98 399.96 790.97 398.98 790.97 398.98 825.97 397.95 825.97 397.95 860.96 396.92 860.96 396.92 895.95 395.94 895.95 395.94 916.49 398.01 916.03 398.98 914.94 398.98 896.01 399.9 896.01 399.9 860.96 400.93 860.96 400.93 825.97 401.91 825.97 401.91 790.97 402.94 790.97 402.94 755.92 403.92 755.92 403.92 721.97 404.95 721.97 404.95 686.92 405.98 686.92 405.98 651.92 406.95 651.92 406.95 616.93 407.93 616.93 407.93 581.94 408.96 581.94 408.96 562.95 407.76 560.83 407.93 556.99 407.93 554 406.95 554"/></g></g></svg>