<svg id="Trousers" 
    xmlns="http://www.w3.org/2000/svg" viewBox="0 0 650 1100">
    <defs>
        <!--<style>.cls-1{fill:#f18a8c;}</style>-->
    </defs>
    <g id="Dress">
        <g id="Type1">
            <g id="Overlay">
                <g id="Layer_31" data-name="Layer 31">
                    <g id="Belt">
                        <path id="element-Trousers-Dress-Type1-Belt-path" class="cls-1" d="M246.55,507.45s8.28.89,8.42,1.23,2.8.82,2.8.82l8.7.41,1.37.69H280.5l1.44,1.16.68,17.94-1.85-1.1H267.56l-1-1.16h-9.92l-1.1-1h-5l-1.1-1.09-5.13.2,1-3.35.62-9.66Z"/>
                        <polygon id="element-Trousers-Dress-Type1-Belt-path" class="cls-1" points="287.35 511.35 298.57 511.35 299.39 512.51 311.17 512.51 309.94 513.61 308.84 515.32 308.7 526.55 309.39 527.51 310.35 528.46 311.71 529.7 312.33 530.59 299.46 530.59 298.85 529.7 287.35 529.7 287.35 511.35"/>
                        <polygon id="element-Trousers-Dress-Type1-Belt-path" class="cls-1" points="402.49 507.38 403.17 512.58 404.13 522.03 404.61 525.45 397.56 526.14 392.01 527.23 379.21 528.33 366.62 528.33 366.62 511.42 369.42 510.8 382.02 510.12 393.11 509.23 398.17 508.13 402.49 507.38"/>
                        <polygon id="element-Trousers-Dress-Type1-Belt-path" class="cls-1" points="361.69 511.35 361.69 529.42 349.64 530.04 337.45 530.59 338.89 529.76 339.71 528.33 340.53 527.44 341.49 526.75 341.49 514.84 340.12 514.02 339.3 512.86 339.92 512.31 349.57 512.38 351.28 511.69 361.69 511.35"/>
                    </g>
                </g>
            </g>
        </g>
    </g>
</svg>