<svg id="Trousers" 
    xmlns="http://www.w3.org/2000/svg" viewBox="0 0 650 1100">
    <defs>
        <!--<style>.cls-1{fill:#f18a8c;}</style>-->
    </defs>
    <g id="Dress">
        <g id="Type1">
            <g id="Overlay">
                <g id="Base">
                    <polygon id="element-Trousers-Dress-Type1-Base-path" class="cls-1" points="339.64 528.31 337.46 530.49 338.85 529.7 339.64 528.31"/>
                    <polygon id="element-Trousers-Dress-Type1-Base-path" class="cls-1" points="341.38 515.33 341.38 526.57 340.8 527.14 341.45 526.68 341.45 514.77 340.08 513.95 339.26 512.79 339.87 512.24 340.07 512.24 339.43 511.54 337.58 511.53 341.38 515.33"/>
                    <path id="element-Trousers-Dress-Type1-Base-path" class="cls-1" d="M395.55,527.1l5.54-1.38-3.58.35L392,527.16l-12.81,1.1H366.57V511.37l-.1,0-1.35-1.07-1.86-.14-1.8,1.11h.18v18.07l-12.05.62-12.16.55-1.11,1.11H313.69L309,526.89l.39.55,1,1,1.37,1.23.62.89H299.42l-.62-.89H287.3V511.32h0l-.65-.85-2.92-.15-1.8,1.53.68,17.78-1.85-1.1H267.52l-1-1.16h-9.93l-1.09-1h-4.13l3,.76-3.91,52.39-.24,60L257.5,1020l-6-3-8.39-378v-61l4.73-52.64,2.43.6-.81-.8-5.13.2,1-3.35.61-9.65.55-5.07s1.53.16,3.28.38l-1.9-.36-2.64-1-.57-1.07H242.6v6.13l-1,1.08v9l-1,.85-.07,3,.92.93.3,12.55-1.22.22.07,13.49-1,.92-.07,6.28-.93.5-.07,9.42-1,.72.32,18.73-1.53,1.53V647.4l1.21.86V663.6l1,.71-.07,18,1.07,1.22-.21,33.88,1.35.94-.27,34.16,1.13.73,0,34.08,1.11,1.1v34l1,1.14v32.9l.93,1.21V891.3l1.07,1.07v33.82l.86,1.64v33.61l.86.86v33.75l1.14,1.36v17.05l2.64,2.5,10.13,5.21,9.42,5.06H274l42.45-7.79,2-2v-32l1-1v-66l1.09-1.08V851.59l1.11-1.11V784.69l.85-1.43V717.69l1.07-1.36V673.09s1.68-.27,1.88,0,.12,43.09.12,43.09l.86,1.21.07,65.29,1,2.14V850.2l1,1.35.14,65.44.71,1.5v65.64l1.22,1.29v32.11l2,2h3.42l.86.78,4.14.15.71.78,5.42.29.5.71,4.57.14.57.86,4.42.21.58.79,5.49.14.57.93,4,.14,1.21.86,4.92.07.93.85H378l.5-.85h1.64l.07-.93h1.5l.79-1.14H384l.65-1.07h1.28l.57-.82h1l1-1h1.21l.65-.92h.78l1.36-.86h.05l7.2-380.13-.24-60Z"/>
                    <polygon id="element-Trousers-Dress-Type1-Base-path" class="cls-1" points="311.12 512.45 309.89 513.54 308.94 515.03 311.77 512.1 311.17 512.39 299.31 512.39 299.35 512.45 311.12 512.45"/>
                    <polygon id="element-Trousers-Dress-Type1-Base-path" class="cls-1" points="393.11 1019.67 393.44 1019.67 393.67 1019.39 393.11 1019.67"/>
                    <polygon id="element-Trousers-Dress-Type1-Base-path" class="cls-1" points="381.97 510.05 390.53 509.36 383.38 509.25 381.86 510.06 381.97 510.05"/>
                    <polygon id="element-Trousers-Dress-Type1-Base-path" class="cls-1" points="393.06 509.16 396.79 508.36 393.52 508.47 392.8 509.18 393.06 509.16"/>
                    <polygon id="element-Trousers-Dress-Type1-Base-path" class="cls-1" points="401.54 507.47 398.58 507.47 397.88 508.12 398.13 508.06 401.54 507.47"/>
                    <polygon id="element-Trousers-Dress-Type1-Base-path" class="cls-1" points="369.38 510.74 372.69 510.56 369.97 510.54 367.31 511.19 369.38 510.74"/>
                    <path id="element-Trousers-Dress-Type1-Base-path" class="cls-1" d="M257.9,509.44l-2.43-.54a19.42,19.42,0,0,0,2.26.53Z"/>
                    <polygon id="element-Trousers-Dress-Type1-Base-path" class="cls-1" points="411.5 589.24 411.5 570.33 410.43 569.55 410.43 560.7 409.5 559.27 409.5 553.64 408.36 552.35 408.36 539.37 407.5 538.44 407.57 526.38 408.36 526.38 408.36 522.67 407.64 521.31 407.64 513.18 406.43 510.82 406.43 505.33 404.79 505.33 403.51 506.4 402.58 506.33 401.75 507.43 402.44 507.31 403.12 512.51 404.08 521.96 404.56 525.38 402.2 525.61 406.91 578.1 406.91 639.05 398.53 1016.38 400.31 1014.6 400.31 997.64 401.47 996.48 401.47 962.55 402.44 961.59 402.44 927.62 403.4 926.48 403.4 892.55 404.43 891.51 404.43 857.9 405.58 856.26 405.58 823.51 406.5 822.3 406.5 788.47 407.43 787.47 407.43 753.58 408.5 752.22 408.5 718.47 409.64 717.33 409.64 683.51 410.43 682.37 410.43 658.39 411.57 657.53 411.57 641.83 412.28 640.48 412.28 590.46 411.5 589.24"/>
                    <polygon id="element-Trousers-Dress-Type1-Base-path" class="cls-1" points="360.72 511.31 351.06 511.18 349.54 512.3 351.24 511.63 360.72 511.31"/>
                    <polygon id="element-Trousers-Dress-Type1-Base-path" class="cls-1" points="266.42 509.85 267.79 510.53 280.45 510.53 280.85 510.85 280.42 510.39 267.71 510.39 266.29 509.47 258.42 509.47 266.42 509.85"/>
                </g>
            </g>
        </g>
    </g>
</svg>