<svg id="Trousers" 
    xmlns="http://www.w3.org/2000/svg" viewBox="0 0 650 1100">
    <defs>
        <!--<style>.cls-1{fill:#e6007e;}</style>-->
    </defs>
    <g id="Dress">
        <g id="Type2">
            <g id="Boots">
                <g id="Band">
                    <polygon id="element-Trousers-Dress-Type2-Boot_Band-path" data-name="Band Right" class="cls-1" points="382.59 1007.03 381.73 1008.51 380.87 1008.51 379.47 1009.37 373.79 1009.37 363.52 1011.62 357.84 1011.62 355.82 1012.63 350.76 1012.63 337.37 1013.65 334.73 1014.58 333.64 1013.57 333.64 1011.62 335.43 1009.52 338.77 1008.43 349.98 1007.58 362.74 1006.57 373.48 1004.54 380.81 1003.5 381.73 1005.55 382.59 1007.03"/>
                    <polygon id="element-Trousers-Dress-Type2-Boot_Band-path" data-name="Band Left" class="cls-1" points="266.49 1007.03 267.34 1008.51 268.2 1008.51 269.6 1009.37 275.28 1009.37 285.55 1011.62 291.23 1011.62 293.25 1012.63 298.31 1012.63 311.7 1013.65 314.34 1014.58 315.43 1013.57 315.43 1011.62 313.64 1009.52 310.3 1008.43 299.09 1007.58 286.33 1006.57 275.59 1004.54 268.26 1003.5 267.34 1005.55 266.49 1007.03"/>
                </g>
            </g>
        </g>
    </g>
</svg>