<svg id="Trousers" 
    xmlns="http://www.w3.org/2000/svg" viewBox="0 0 650 1100">
    <defs>
        <!--<style>.cls-1{fill:#e6007e;}</style>-->
    </defs>
    <g id="Dress">
        <g id="Type2">
            <g id="Base">
                <g id="Layer_49" data-name="Layer 49">
                    <polyline id="element-Trousers-Dress-Type2-Base-path" class="cls-1" points="241.41 537.51 240.53 538.39 240.53 551.44 239.59 552.52 239.59 558.57 238.58 559.45 238.58 568.47 237.57 569.36 237.57 588.4 236.5 589.6 236.5 593.51 235.49 594.52 235.49 601.52 234.6 602.53 234.6 609.4 233.59 610.54 233.59 617.41 232.52 618.55 232.52 625.36 231.51 626.68 231.51 633.37 230.57 634.69 230.57 641.13 229.56 642.64 229.56 649.51 228.36 650.71 228.36 657.46 227.29 658.6 227.29 663.64 226.47 664.59 226.47 669.44 225.58 670.64 225.58 681.36 224.51 682.56 224.51 691.33 223.5 692.84 223.5 702.3 222.56 703.69 222.56 714.22 221.49 715.61 221.49 737.43 220.54 738.56 220.54 748.4 221.42 749.6 221.49 757.36 222.37 758.55 222.43 766.38 223.44 767.57 223.5 773.57 224.39 774.38 224.39 779.62 225.46 780.31 225.52 783.34 226.34 784.41 226.4 787.57 227.41 788.32 227.48 790.47 228.36 791.41 228.3 792.55 229.43 793.24 229.43 794.5 230.38 795.39 230.44 796.59 231.39 797.34 231.32 798.54 232.46 799.36 233.59 800.62 234.41 802.95 235.36 804.66 236.43 805.23 237.25 806.42 238.13 806.42 239.4 807.37 240.41 807.37 241.41 808.5 243.37 808.5 244.63 809.51 245.39 809.51 246.46 810.52 246.46 811.34 247.53 812.6 247.53 816.26 248.48 817.84 248.48 822.44 249.36 823.51 249.36 825.28 250.43 826.54 250.43 841.42 251.38 842.43 251.38 844.51 250.43 845.71 250.43 848.3 251.38 849.37 256.49 851.71 259.51 852.21 263.17 853.35 305.43 853.35 307.13 852.46 309.08 852.4 311.61 851.52 316.59 849.75 316.59 847.79 315.52 846.15 315.52 837.64 316.59 836.25 316.59 825.6 317.35 824.46 317.35 821.68 318.42 820.49 318.42 815.57 319.62 814.37 319.62 810.46 320.56 809.39 320.56 800.43 321.38 799.55 321.38 790.66 322.71 789.27 322.71 770.48 323.59 769.28 323.59 672.41 324.47 671.65 325.36 672.47 325.36 769.28 326.59 770.51 326.59 789.27 327.44 790.85 327.44 799.36 328.48 800.4 328.48 809.51 329.5 810.54 329.5 814.5 330.52 815.51 330.52 820.49 331.53 821.5 331.53 824.59 332.51 825.57 332.51 836.44 333.57 837.5 333.57 846.34 332.46 847.46 332.46 849.5 333.42 850.46 335.38 850.46 336.54 851.62 338.54 851.62 339.37 852.45 342.51 852.45 343.68 853.62 386.28 853.62 387.33 852.57 390.38 852.57 391.47 851.48 393.59 851.48 394.52 850.55 395.42 850.55 396.49 849.49 397.44 849.49 398.6 848.33 398.6 845.59 397.42 844.41 397.42 842.69 398.52 841.59 398.52 826.48 399.52 825.47 399.52 823.51 400.6 822.44 400.6 817.46 401.42 816.64 401.42 812.6 402.49 811.53 402.49 810.59 403.56 809.51 404.63 809.51 405.67 808.47 407.47 808.47 408.46 807.48 409.36 807.48 410.3 806.54 411.5 806.54 414.59 803.46 414.59 802.51 415.48 801.63 415.48 800.56 417.5 798.54 417.5 797.66 418.6 796.55 418.6 795.51 419.53 794.58 419.53 793.56 420.66 792.43 420.66 791.48 421.54 790.6 421.54 788.58 422.48 787.5 422.48 784.54 423.49 783.53 423.49 780.44 424.5 779.43 424.5 774.51 425.6 773.41 425.6 767.51 426.53 766.58 426.53 758.55 427.56 757.52 427.56 749.47 428.71 748.33 428.71 738.69 427.68 737.65 427.68 715.48 426.62 714.43 426.62 703.56 425.53 702.47 425.53 692.52 424.41 691.41 424.41 682.31 423.29 681.18 423.29 670.2 422.28 669.2 422.28 664.33 421.47 663.52 421.47 658.47 420.37 657.37 420.37 650.27 419.44 649.34 419.44 642.45 418.47 641.48 418.47 634.5 417.38 633.42 417.38 626.37 416.24 625.23 416.24 618.29 415.45 617.5 415.45 610.29 414.36 609.2 414.36 602.53 413.37 601.54 413.37 594.58 412.31 593.52 412.31 589.28 411.47 588.44 411.47 569.8 410.35 568.68 410.35 559.52 409.32 558.49 409.32 552.64 408.43 551.75 408.43 538.39 407.57 537.53 407.57 525.59 408.39 524.88 406.32 504.59 402.5 505.39 404.32 524.33 399.71 524.33 398.57 525.41 394.25 525.67 392.14 526.32 384.06 526.41 381.08 527.36 369.25 527.62 366.5 528.53 366.01 509.99 362 510 361.59 528.49 350.87 528.49 349.53 529.4 337.61 529.4 336.33 530.7 313.81 530.7 312.49 529.56 299.25 529.56 298.62 528.42 287.64 528.42 287 510 282.99 509.99 282.36 528.53 281.46 528.53 280.3 527.38 267.52 527.38 266.45 526.47 256.36 526.47 255.41 525.52 250.43 525.52 249.49 524.58 244.57 524.58 244.95 521.05 246.02 511.02 246.02 505.28 242.49 504.59 241.98 511.02 241.04 520.98 240.72 524.89 241.35 525.46"/>
                </g>
            </g>
        </g>
    </g>
</svg>