<svg id="Trousers" 
    xmlns="http://www.w3.org/2000/svg" viewBox="0 0 650 1100">
    <defs>
        <!--<style>.cls-1{fill:#e6007e;}</style>-->
    </defs>
    <g id="Dress">
        <g id="Type2">
            <g id="Boots">
                <g id="Soles">
                    <polygon id="element-Trousers-Dress-Type2-Boot_Soles-path" data-name="Sole Right" class="cls-1" points="362.37 1058.27 354.48 1050.47 342.75 1050.47 335.54 1046.66 334.54 1045.36 334.54 1038.35 333.64 1037.74 333.67 1033.58 334.6 1033.58 335.6 1034.58 336.49 1034.58 337.67 1035.42 338.64 1035.42 339.45 1036.39 340.64 1036.39 341.28 1037.36 342.63 1037.36 344.68 1039.67 346.62 1039.67 348.08 1041.05 365.53 1058.5 365.47 1059.38 366.56 1060.47 366.56 1061.55 368.59 1063.59 368.59 1064.48 370.63 1066.52 370.63 1067.46 373.67 1070.51 374.55 1070.51 376.51 1072.47 377.48 1072.47 379.51 1074.51 380.58 1074.51 381.6 1075.53 382.63 1075.53 383.7 1076.59 386.62 1076.59 387.62 1077.59 401.67 1077.59 402.31 1076.63 406.53 1076.63 407.52 1075.59 408.58 1075.59 409.57 1074.6 410.57 1074.6 413.61 1071.56 414.61 1071.56 414.61 1073.62 410.5 1077.59 409.7 1077.59 405.79 1079.74 402.89 1079.74 400.78 1080.54 387.95 1080.54 386.75 1079.74 383.94 1079.54 382.59 1078.63 379.03 1077.03 378.03 1075.93 376.13 1075.03 375.23 1074.03 373.54 1073.71 372.2 1072.13 371.35 1071.46 370.37 1070.23 369.31 1069.11 368.11 1068.01 367.51 1066.91 366.83 1065.59 365.55 1064.56 365.55 1063.58 364.75 1062.54 363.53 1061.44 363.47 1060.22 362.68 1059.73 362.37 1058.27"/>
                    <polygon id="element-Trousers-Dress-Type2-Boot_Soles-path" data-name="Sole Left" class="cls-1" points="286.7 1058.27 294.59 1050.47 306.32 1050.47 313.53 1046.66 314.54 1045.36 314.54 1038.35 315.43 1037.74 315.41 1033.58 314.47 1033.58 313.47 1034.58 312.58 1034.58 311.4 1035.42 310.43 1035.42 309.62 1036.39 308.43 1036.39 307.79 1037.36 306.44 1037.36 304.39 1039.67 302.45 1039.67 300.99 1041.05 283.54 1058.5 283.6 1059.38 282.52 1060.47 282.52 1061.55 280.48 1063.59 280.48 1064.48 278.44 1066.52 278.44 1067.46 275.4 1070.51 274.52 1070.51 272.56 1072.47 271.59 1072.47 269.56 1074.51 268.49 1074.51 267.47 1075.53 266.44 1075.53 265.37 1076.59 262.46 1076.59 261.45 1077.59 247.4 1077.59 246.76 1076.63 242.54 1076.63 241.55 1075.59 240.49 1075.59 239.5 1074.6 238.5 1074.6 235.46 1071.56 234.46 1071.56 234.46 1073.62 238.57 1077.59 239.37 1077.59 243.28 1079.74 246.18 1079.74 248.29 1080.54 261.12 1080.54 262.32 1079.74 265.13 1079.54 266.49 1078.63 270.04 1077.03 271.04 1075.93 272.94 1075.03 273.85 1074.03 275.53 1073.71 276.87 1072.13 277.72 1071.46 278.7 1070.23 279.76 1069.11 280.96 1068.01 281.56 1066.91 282.24 1065.59 283.52 1064.56 283.52 1063.58 284.32 1062.54 285.54 1061.44 285.6 1060.22 286.39 1059.73 286.7 1058.27"/>
                </g>
            </g>
        </g>
    </g>
</svg>