<svg id="Trousers" 
    xmlns="http://www.w3.org/2000/svg" viewBox="0 0 650 1100">
    <defs>
        <!--<style>.cls-1{fill:#e6007e;}</style>-->
    </defs>
    <g id="Dress">
        <g id="Type2">
            <g id="Boots">
                <g id="Lower_Boot" data-name="Lower Boot">
                    <polygon id="element-Trousers-Dress-Type2-Lower_Boot-path" data-name="Upper Boot Left" class="cls-1" points="233.52 1068.05 233.52 1065.41 234.52 1064.42 234.52 1063.42 235.49 1062.46 235.49 1060.49 236.5 1059.48 236.5 1058.5 237.56 1057.44 237.56 1055.52 238.56 1054.52 238.56 1053.47 239.52 1052.5 239.52 1051.53 240.54 1050.52 240.54 1049.48 242.53 1047.48 242.53 1046.44 245.5 1043.48 245.5 1042.46 249.55 1038.4 249.55 1037.42 252.49 1034.48 252.49 1033.49 255.57 1030.42 255.57 1029.39 258.42 1026.58 259.4 1026.58 263.5 1022.48 263.5 1021.52 265.45 1019.57 265.45 1018.52 266.4 1017.58 266.4 1016.56 268.45 1014.5 268.45 1013.54 269.52 1012.47 270.5 1012.47 271.52 1011.46 273.43 1011.46 274.43 1012.45 276.54 1012.45 277.46 1013.37 277.46 1016.62 276.56 1017.52 276.56 1020.79 275.46 1021.89 275.46 1031.52 278.47 1034.53 280.6 1034.53 281.54 1035.47 289.46 1035.47 290.38 1034.55 294.53 1034.55 295.61 1033.47 297.44 1033.47 301.37 1037.41 301.48 1038.11 302.45 1039.67 300.99 1041.05 283.54 1058.5 283.6 1059.38 282.52 1060.47 282.52 1061.55 280.48 1063.59 280.48 1064.48 278.44 1066.52 278.44 1067.46 275.4 1070.51 274.52 1070.51 272.56 1072.47 271.59 1072.47 269.56 1074.51 268.49 1074.51 267.47 1075.53 266.44 1075.53 265.37 1076.59 262.46 1076.59 261.45 1077.59 247.4 1077.59 246.76 1076.63 242.54 1076.63 241.55 1075.59 240.49 1075.59 239.5 1074.6 238.5 1074.6 235.46 1071.56 234.46 1071.56 233.53 1070.63 233.52 1068.05"/>
                    <polygon id="element-Trousers-Dress-Type2-Lower_Boot-path" data-name="Upper Boot Right" class="cls-1" points="415.55 1068.05 415.55 1065.41 414.55 1064.42 414.55 1063.42 413.59 1062.46 413.59 1060.49 412.57 1059.48 412.57 1058.5 411.51 1057.44 411.51 1055.52 410.51 1054.52 410.51 1053.47 409.55 1052.5 409.55 1051.53 408.54 1050.52 408.54 1049.48 406.54 1047.48 406.54 1046.44 403.57 1043.48 403.57 1042.46 399.52 1038.4 399.52 1037.42 396.58 1034.48 396.58 1033.49 393.5 1030.42 393.5 1029.39 390.65 1026.58 389.67 1026.58 385.57 1022.48 385.57 1021.52 383.62 1019.57 383.62 1018.52 382.67 1017.58 382.67 1016.56 380.62 1014.5 380.62 1013.54 379.55 1012.47 378.57 1012.47 377.55 1011.46 375.64 1011.46 374.64 1012.45 372.53 1012.45 371.61 1013.37 371.61 1016.62 372.51 1017.52 372.51 1020.79 373.61 1021.89 373.61 1031.52 370.6 1034.53 368.47 1034.53 367.53 1035.47 359.61 1035.47 358.69 1034.55 354.54 1034.55 353.46 1033.47 351.63 1033.47 347.7 1037.41 347.59 1038.11 346.62 1039.67 348.08 1041.05 365.53 1058.5 365.47 1059.38 366.56 1060.47 366.56 1061.55 368.59 1063.59 368.59 1064.48 370.63 1066.52 370.63 1067.46 373.67 1070.51 374.55 1070.51 376.51 1072.47 377.48 1072.47 379.51 1074.51 380.58 1074.51 381.6 1075.53 382.63 1075.53 383.7 1076.59 386.62 1076.59 387.62 1077.59 401.67 1077.59 402.31 1076.63 406.53 1076.63 407.52 1075.59 408.58 1075.59 409.57 1074.6 410.57 1074.6 413.61 1071.56 414.61 1071.56 415.55 1070.63 415.55 1068.05"/>
                </g>
            </g>
        </g>
    </g>
</svg>