<svg id="Trousers" 
    xmlns="http://www.w3.org/2000/svg" viewBox="0 0 650 1100">
    <defs>
        <!--<style>.cls-1{fill:#e6007e;}</style>-->
    </defs>
    <g id="Dress">
        <g id="Type2">
            <g id="Boots">
                <g id="Upper_Boot" data-name="Upper Boot">
                    <g id="Upper_Boot_Right" data-name="Upper Boot Right">
                        <polygon id="element-Trousers-Dress-Type2-Upper_Boot-path" class="cls-1" points="389.63 1023.4 388.82 1022.48 388.79 1021.78 386.61 1019.46 386.61 1018.55 385.64 1017.68 385.64 1015.42 384.67 1014.77 384.67 1012.46 382.57 1010.68 382.57 1009.49 381.38 1008.52 381.39 1008.51 380.95 1008.51 379.55 1009.37 373.87 1009.37 363.6 1011.62 357.91 1011.62 355.89 1012.63 350.83 1012.63 337.45 1013.65 334.8 1014.58 334.65 1014.44 334.65 1017.63 333.5 1018.38 333.5 1025.66 332.51 1026.64 332.51 1031.48 333.67 1032.63 333.67 1033.58 334.6 1033.58 335.6 1034.58 336.49 1034.58 337.67 1035.42 338.64 1035.42 339.45 1036.39 340.64 1036.39 341.28 1037.36 342.63 1037.36 344.68 1039.67 346.62 1039.67 347.59 1038.11 347.7 1037.41 351.63 1033.47 353.46 1033.47 354.54 1034.55 358.69 1034.55 359.61 1035.47 367.53 1035.47 368.47 1034.53 370.6 1034.53 373.61 1031.52 373.61 1021.89 372.51 1020.79 372.51 1017.52 371.61 1016.62 371.61 1013.37 372.53 1012.45 374.64 1012.45 375.64 1011.46 377.55 1011.46 378.57 1012.47 379.55 1012.47 380.62 1013.54 380.62 1014.5 382.67 1016.56 382.67 1017.58 383.62 1018.52 383.62 1019.57 385.57 1021.52 385.57 1022.48 389.67 1026.58 390.65 1026.58 390.65 1025.44 389.63 1024.69 389.63 1023.4"/>
                        <polygon id="element-Trousers-Dress-Type2-Upper_Boot-path" class="cls-1" points="382.67 1007.5 382.65 1007.05 382.15 1007.91 382.67 1007.5"/>
                        <polygon id="element-Trousers-Dress-Type2-Upper_Boot-path" class="cls-1" points="396.63 849.49 395.63 850.48 394.53 850.48 393.52 851.49 391.67 851.49 390.58 852.59 387.58 852.59 386.63 853.54 343.6 853.54 342.54 852.48 339.61 852.48 338.6 851.47 336.54 851.47 335.55 850.48 333.58 850.48 333.58 867.43 334.55 868.67 334.55 882.41 335.6 883.46 335.6 905.48 336.61 906.49 336.61 928.28 337.56 929.62 337.56 951.5 338.51 952.45 338.51 974.46 339.49 975.45 339.49 990.52 338.48 991.54 338.48 998.5 337.45 999.52 337.45 1003.57 336.51 1004.51 336.51 1006.58 335.48 1007.62 335.48 1009.38 334.44 1009.38 334.44 1010.57 333.5 1011.51 333.5 1013.7 334.38 1014.19 333.71 1013.57 333.71 1011.62 335.5 1009.52 338.85 1008.43 350.06 1007.58 362.82 1006.57 373.56 1004.54 380.55 1003.54 380.52 1003.51 379.71 1003.46 379.39 999.47 378.69 998.34 379.01 989.01 380.09 981.9 382.13 967.02 384.02 953.01 386.07 939 387.99 924.99 390.11 909.9 392 896 394.02 882.05 397.06 859.99 397.71 849.49 396.63 849.49"/>
                        <polygon id="element-Trousers-Dress-Type2-Upper_Boot-path" class="cls-1" points="382.07 1006.01 382.65 1007.01 382.62 1006.48 382.07 1006.01"/>
                        <polygon id="element-Trousers-Dress-Type2-Upper_Boot-path" class="cls-1" points="381.6 1005.08 381.6 1004.53 381.17 1004.13 381.6 1005.08"/>
                    </g>
                    <g id="Upper_Boot_Left" data-name="Upper Boot Left">
                        <polygon id="element-Trousers-Dress-Type2-Upper_Boot-path" class="cls-1" points="261.08 924.99 263 939 265.05 953.01 266.94 967.02 268.98 981.9 270.06 989.01 270.38 998.34 269.69 999.47 269.36 1003.46 268.55 1003.51 268.54 1003.52 275.67 1004.54 286.4 1006.57 299.17 1007.58 310.37 1008.43 313.72 1009.52 315.51 1011.62 315.51 1013.57 315.06 1013.98 315.57 1013.7 315.57 1011.51 314.63 1010.57 314.63 1009.38 313.6 1009.38 313.6 1007.62 312.56 1006.58 312.56 1004.51 311.62 1003.57 311.62 999.52 310.6 998.5 310.6 991.54 309.58 990.52 309.58 975.45 310.56 974.46 310.56 952.45 311.5 951.5 311.5 929.62 312.46 928.28 312.46 906.49 313.47 905.48 313.47 883.46 314.52 882.41 314.52 868.67 315.49 867.43 315.49 850.48 313.52 850.48 312.53 851.47 310.47 851.47 309.46 852.48 306.53 852.48 305.47 853.54 262.45 853.54 261.49 852.59 258.5 852.59 257.4 851.49 255.55 851.49 254.54 850.48 253.44 850.48 252.44 849.49 251.36 849.49 252.01 859.99 255.05 882.05 257.07 896 258.96 909.9 261.08 924.99"/>
                        <polygon id="element-Trousers-Dress-Type2-Upper_Boot-path" class="cls-1" points="266.45 1006.48 266.4 1007.5 267.2 1008.13 266.56 1007.03 267.29 1005.77 266.45 1006.48"/>
                        <polygon id="element-Trousers-Dress-Type2-Upper_Boot-path" class="cls-1" points="315.57 1025.66 315.57 1018.38 314.42 1017.63 314.42 1014.58 311.77 1013.65 298.39 1012.63 293.33 1012.63 291.31 1011.62 285.63 1011.62 275.35 1009.37 269.67 1009.37 268.27 1008.51 267.68 1008.51 267.69 1008.52 266.5 1009.49 266.5 1010.68 264.4 1012.46 264.4 1014.77 263.43 1015.42 263.43 1017.68 262.46 1018.55 262.46 1019.46 260.28 1021.78 260.25 1022.48 259.44 1023.4 259.44 1024.69 258.42 1025.44 258.42 1026.58 259.4 1026.58 263.5 1022.48 263.5 1021.52 265.45 1019.57 265.45 1018.52 266.4 1017.58 266.4 1016.56 268.45 1014.5 268.45 1013.54 269.52 1012.47 270.5 1012.47 271.52 1011.46 273.43 1011.46 274.43 1012.45 276.54 1012.45 277.46 1013.37 277.46 1016.62 276.56 1017.52 276.56 1020.79 275.46 1021.89 275.46 1031.52 278.47 1034.53 280.6 1034.53 281.54 1035.47 289.46 1035.47 290.38 1034.55 294.53 1034.55 295.61 1033.47 297.44 1033.47 301.37 1037.41 301.48 1038.11 302.45 1039.67 304.39 1039.67 306.44 1037.36 307.79 1037.36 308.43 1036.39 309.62 1036.39 310.43 1035.42 311.4 1035.42 312.58 1034.58 313.47 1034.58 314.47 1033.58 315.41 1033.58 315.41 1032.63 316.56 1031.48 316.56 1026.64 315.57 1025.66"/>
                        <polygon id="element-Trousers-Dress-Type2-Upper_Boot-path" class="cls-1" points="268.16 1003.88 267.48 1004.53 267.48 1005.42 268.16 1003.88"/>
                    </g>
                </g>
            </g>
        </g>
    </g>
</svg>