<svg id="Trousers" 
    xmlns="http://www.w3.org/2000/svg" viewBox="0 0 650 1100">
    <defs>
        <!--<style>.cls-1{fill:#e6007e;}</style>-->
    </defs>
    <g id="Dress">
        <g id="Type2">
            <g id="Belt">
                <polygon id="element-Trousers-Dress-Type2-Belt-path" class="cls-1" points="246.74 506.47 253.61 507.31 257.43 508.47 265.91 508.47 268.31 509.64 280.22 509.64 281.71 510.35 282.29 510.35 282.29 528.29 281.39 528.29 280.48 527.51 267.66 527.51 266.52 526.58 256.67 526.58 255.4 525.46 250.43 525.46 249.45 524.48 244.54 524.48 244.54 521.51 245.54 520.5 245.54 511.52 246.54 510.39 246.74 506.47"/>
                <polygon id="element-Trousers-Dress-Type2-Belt-path" class="cls-1" points="287.5 510.42 298.4 510.42 299.41 511.4 310.52 511.4 310.52 512.34 309.52 513.54 308.29 514.74 308.29 525.32 312.43 529.46 299.44 529.46 298.44 528.46 287.5 528.46 287.5 510.42"/>
                <polygon id="element-Trousers-Dress-Type2-Belt-path" class="cls-1" points="361.51 510.48 361.51 528.5 350.56 528.5 349.59 529.46 337.55 529.46 341.48 525.53 341.48 514.48 338.47 511.48 349.53 511.48 350.51 510.5 361.51 510.48"/>
                <polygon id="element-Trousers-Dress-Type2-Belt-path" class="cls-1" points="366.46 510.48 367.5 510.48 368.54 509.44 381.48 509.44 382.57 508.36 392.57 508.36 393.47 507.45 397.42 507.45 398.52 506.55 402.43 506.55 402.43 510.48 403.62 511.68 403.62 520.63 404.52 521.52 404.52 524.47 399.53 524.47 398.39 525.6 393.42 525.6 392.47 526.55 382.46 526.55 381.44 527.57 368.48 527.57 367.51 528.54 366.46 528.54 366.46 510.48"/>
            </g>
        </g>
    </g>
</svg>