<svg id="Layer_1" data-name="Layer 1" 
    xmlns="http://www.w3.org/2000/svg" viewBox="0 0 650 1100">
    <defs>
        <!--<style>.cls-1{fill:#f18a8c;}</style>-->
    </defs>
    <g id="Headgear">
        <g id="Visor">
            <g id="Visor-2" data-name="Visor">
                <polygon id="element-Headgear-Visor-Saddle-Visor-path" points="280.32 163.5 282.26 163.5 282.26 162.65 285.17 162.65 286.75 163.5 291.23 163.5 292.93 162.65 357.44 162.65 357.44 163.5 362.41 163.5 363.51 162.65 366.54 162.65 366.54 163.5 368.36 163.5 368.36 165.32 362.29 171.74 361.08 171.74 360.35 172.59 359.38 172.59 357.93 173.68 356.47 173.68 355.02 174.53 352.47 174.53 351.62 175.38 347.5 175.38 346.29 176.59 338.28 176.59 337.31 177.69 311.48 177.69 310.39 176.23 302.27 176.47 301.05 175.26 295.6 175.5 292.2 173.56 290.63 173.44 289.17 172.35 288.08 172.11 286.26 171.26 280.32 165.32 280.32 163.5"/>
            </g>
        </g>
    </g>
</svg>