<svg id="Layer_1" data-name="Layer 1" 
    xmlns="http://www.w3.org/2000/svg" viewBox="0 0 650 1100">
    <defs>
        <!--<style>.cls-1{fill:#fc8b8b;}</style>-->
    </defs>
    <g id="Headgear">
        <g id="Visor">
            <g id="Band">
                <polygon id="element-Headgear-Visor-Saddle-Band-path" class="cls-1" points="280.27 144.97 282.32 143.81 283.89 143.12 287.9 142.14 297.97 140.97 350.99 140.97 360.87 142.04 364.98 142.97 367.13 144.1 368.6 144.98 368.6 155.25 367.82 155.25 365.47 153.98 362.83 153.98 360.51 153 358.23 153.29 357.74 154.37 355.1 154.37 354.02 153.1 294.87 153.39 292.69 154.37 290.74 153.98 290.54 153.49 287.02 153.49 285.65 154.47 282.32 154.47 282.03 155.25 280.37 155.64 280.37 151.24 280.27 144.97"/>
            </g>
        </g>
    </g>
</svg>