<svg id="Layer_1" data-name="Layer 1" 
    xmlns="http://www.w3.org/2000/svg" viewBox="0 0 650 1100">
    <defs>
        <!--<style>.cls-1{fill:#f18a8c;}</style>-->
    </defs>
    <g id="Headgear">
        <g id="Visor">
            <g id="Braiding">
                <polygon id="element-Headgear-Visor-Saddle-Braiding-path" points="279.49 156.44 280.61 155.44 281.5 155.44 282.68 154.56 285.51 154.56 286.74 153.32 290.69 153.32 291.29 154.62 293.35 154.56 294.76 153.32 354.39 153.32 355.39 154.5 357.57 154.5 358.57 153.32 362.47 153.32 363.41 154.56 366.48 154.56 367.42 155.38 368.54 155.38 369.37 156.44 369.37 163.58 366.54 163.58 365.78 162.52 363.39 162.5 362.56 163.58 357.34 163.58 357.28 162.32 291.64 162.37 291.11 163.58 286.45 163.58 285.45 162.22 282.56 162.22 282.32 163.58 279.49 163.58 279.49 156.44"/>
            </g>
        </g>
    </g>
</svg>