<svg id="Layer_1" data-name="Layer 1" 
    xmlns="http://www.w3.org/2000/svg" viewBox="0 0 650 1100">
    <defs>
        <!--<style>.cls-1{fill:#f18a8c;}</style>-->
    </defs>
    <g id="Headgear">
        <g id="Visor">
            <g id="Cap">
                <path id="element-Headgear-Visor-Saddle-Cap-path" class="cls-1" d="M325,141h26l8.77.95,2.6.76,2.58.47L368.6,145l-.29,6.16h3.2l5-1.83,3.43-1.83,1.37-4.8v-4.8l-1.14-3.43-1.37-2.75-1.37-1.14-.69-1.83-8-8h-1.38L366,118.9,364,117.75l-1.37-1.37h-1.37l-1.83-2.06h-1.14l-2.06-1.14-5.26-2.74L347,109.29l-7.54-1.6-10.29-1.37s-10.29-.46-11,0S305,108.61,305,108.61l-1.6.91-4.34.69-10.29,5-1.15,1.37h-1.37l-1.83,2.06-1.14-.23-1.6,1.83-1.15.23-9.14,9.14v1.15l-2.06,1.6v1.14l-1.14,1.37v1.6l-.92,1.15v6.63l1.14,1.37v1.14l1.38.69,2.05,1.14,2.06,1.15,3.43,1.37h3V145l4.15-1.83,1.8-.6,2.28-.48L298,141h27Z"/>
            </g>
        </g>
    </g>
</svg>