<svg data-name="Layer 1" 
    xmlns="http://www.w3.org/2000/svg" viewBox="0 0 650 1000">
    <defs>
        <!--<style>.cls-1{fill:#ff0000;}</style>-->
    </defs>
    <g id="Tunic">
        <path id="product-shape" class="cls-1" d="M451,253l-.92-13L449,229.06l-1-7.15-.92-6.81L446,208.16,445.1,204l-1.13-3.9L442.91,197,440,191.15,436,187,431.92,185,426,183.07,423.84,182l-2.76-1L419,180l-6.16-2L411,177l-6-2L403,174l-3-.92L398,172l-3.05-1-3-1-4-2.05-.29-.1a2.79,2.79,0,1,1-.6-.2L378.84,165l-2.76-.28v1l-1.63-.28-.43-2.27-10.63-10.92h-1.06l-5.24,20.84-31.93,65-1.11.24L292,173l-5.53-20.25h-1.19l-10.85,10.75v1.56H273v-.85h-2.69l-.36.85-3,.92-2.9,1-1.52.55h0a3,3,0,1,1-2.07.84l-1.44.74L257,170l-3,1.06-3,1-1.91.92-3.26,1.06L244,175l-3,1.07-3,.92-2.2,1.06-3,1.13-3,1.07-2.27,1-3.33,1-2,1.42-2.91.49-3.11,1.07-2.06,1.34L212,188l-3,3.12L206,197l-2,7-1,4.11-1,6.8L201,222.12l-1,7L199.06,240,198,253l-1,34V387l.92,128.84,2.2,2.34h33.66l.21,2.69.92,2.05,1.14,5.82.85,11.33,1.13,8,.85,3.83,1.06,1.56,11.06.42,25.94,1.14,38.34.85.92.42,55.7-.28,26-1,2-.71,9.28-.36,1.49-3.26.92-6.87,1.07-10.28.42-4.67,1-6,1.14-2.33.42-2.27,33,.14,2.83-3.19L452.05,387V287Zm-72.41,8.28a4.25,4.25,0,1,1-4.26,4.25A4.25,4.25,0,0,1,378.57,261.3Zm-54.06-3.51a5.76,5.76,0,1,1-5.67,5.75A5.71,5.71,0,0,1,324.51,257.79Zm0,42a5.76,5.76,0,1,1-5.67,5.76A5.72,5.72,0,0,1,324.51,299.76Zm0,42a5.76,5.76,0,1,1-5.67,5.76A5.72,5.72,0,0,1,324.51,341.74Zm-54.1-80.44a4.25,4.25,0,1,1-4.25,4.25A4.25,4.25,0,0,1,270.41,261.3ZM252.6,452.84a4.25,4.25,0,1,1,4.26-4.25A4.25,4.25,0,0,1,252.6,452.84Zm144,0a4.25,4.25,0,1,1,4.25-4.25A4.25,4.25,0,0,1,396.58,452.84Zm9.62-36.9h-1.63l-.5-7.87-.69-15.91V405H334.43v1.46H320.35V405H245.26v-5.52l-.35,8.54-1,8h-1.06V367h1.49l.64,9,1,5v1h74.38v-2.91h14.08V382h68.51v-.86L404,376l1-9h1.21Z"/>
    </g>
</svg>