<svg id="Layer_1" data-name="Layer 1" 
    xmlns="http://www.w3.org/2000/svg" viewBox="0 0 650 1100">
    <defs>
        <!--<style>.cls-1{fill:#fc8b8b;}</style>-->
    </defs>
    <g id="Shirt">
        <g id="Neck">
            <polygon id="element-tunic-undershirt-path" class="cls-1" points="314.92 319.93 314.92 315.02 315.98 309.05 319.03 301.04 319.07 299.31 317.09 292.91 316.34 291.11 313.88 288.84 313.88 287.14 322.1 271.08 322.05 270.51 321.91 270.51 321.91 269.94 318.13 268.24 317.66 267.3 315.39 266.17 313.22 265.13 312.09 264.09 310.1 263.14 292.62 245.57 291.58 245.57 290.07 246.89 286.86 253.03 286.86 254.64 287.9 258.42 289.13 262.67 290.92 270.8 292.06 274.01 319.25 329.04 314.92 319.93"/>
            <polygon id="element-tunic-undershirt-path" class="cls-1" points="361.03 250.95 359.33 247.46 358.2 246.13 356.4 245.57 338.64 263.24 337.69 263.33 336.46 264.84 334.86 265.5 332.4 266.92 329 269.09 326.92 269.66 326.92 270.13 327.11 270.13 327.11 271.08 334.95 287.05 334.95 288.94 332.96 291.02 331.93 292.89 329.94 299.87 329.98 301.01 332.97 309.16 333.91 315.2 334.1 319.93 325 339.02 336.09 315.87 356.21 275.99 356.21 274.48 357.44 273.91 357.44 271.65 358.39 270.51 358.39 267.02 359.43 267.02 359.43 262.95 360.28 262.86 360.28 258.98 361.22 258.98 361.31 254.92 362.35 254.92 362.35 253.6 361.03 250.95"/>
        </g>
        <g id="Tie">
            <polygon id="element-tunic-undershirt-path" class="cls-1" points="322.01 270.13 327.11 270.13 327.11 271.08 334.95 287.05 334.95 288.94 332.96 291.02 331.93 292.89 329.94 299.87 329.98 301.01 332.97 309.16 333.91 315.2 334.1 319.93 325 339.02 323.99 339.02 314.92 319.93 314.92 315.02 315.98 309.05 319.03 301.04 319.07 299.31 317.09 292.91 316.34 291.11 313.88 288.84 313.88 287.14 322.1 271.08 322.01 270.13"/>
        </g>
        <g id="Cuffs">
            <polygon id="element-tunic-undershirt-path" class="cls-1" points="205 621 233.17 621 233.17 619.83 204.96 619.83 205 621"/>
            <polygon id="element-tunic-undershirt-path" class="cls-1" points="415.83 621 444 621 444 619.83 415.8 619.83 415.83 621"/>
        </g>
    </g>
</svg>