<svg id="Layer_1" data-name="Layer 1" xmlns="http://www.w3.org/2000/svg" viewBox="0 0 650 1000"><defs><style>.cls-1{fill:#fc8b8b;}</style></defs><g id="Shirt"><g id="Neck"><polygon class="cls-1" points="314.92 218.93 314.92 214.02 315.98 208.05 319.03 200.04 319.07 198.31 317.09 191.91 316.34 190.11 313.88 187.84 313.88 186.14 322.1 170.08 322.05 169.51 321.91 169.51 321.91 168.94 318.13 167.24 317.66 166.3 315.39 165.16 313.22 164.13 312.09 163.09 310.1 162.14 292.62 144.57 291.58 144.57 290.07 145.89 286.86 152.03 286.86 153.64 287.9 157.42 289.13 161.67 290.92 169.79 292.06 173.01 319.25 228.04 314.92 218.93"/><polygon class="cls-1" points="361.03 149.95 359.33 146.46 358.2 145.13 356.4 144.57 338.64 162.24 337.69 162.33 336.46 163.84 334.86 164.5 332.4 165.92 329 168.09 326.92 168.66 326.92 169.13 327.11 169.13 327.11 170.08 334.95 186.05 334.95 187.94 332.96 190.02 331.93 191.89 329.94 198.87 329.98 200.01 332.97 208.16 333.91 214.21 334.1 218.93 325 238.02 336.09 214.87 356.21 174.99 356.21 173.48 357.44 172.91 357.44 170.65 358.39 169.51 358.39 166.02 359.43 166.02 359.43 161.95 360.28 161.86 360.28 157.98 361.22 157.98 361.31 153.92 362.35 153.92 362.35 152.6 361.03 149.95"/></g><g id="Tie"><polygon class="cls-1" points="322.01 169.13 327.11 169.13 327.11 170.08 334.95 186.05 334.95 187.94 332.96 190.02 331.93 191.89 329.94 198.87 329.98 200.01 332.97 208.16 333.91 214.21 334.1 218.93 325 238.02 323.99 238.02 314.92 218.93 314.92 214.02 315.98 208.05 319.03 200.04 319.07 198.31 317.09 191.91 316.34 190.11 313.88 187.84 313.88 186.14 322.1 170.08 322.01 169.13"/></g><g id="Cuffs"><polygon class="cls-1" points="205 520 233.17 520 233.17 518.83 204.96 518.83 205 520"/><polygon class="cls-1" points="415.83 520 444 520 444 518.83 415.8 518.83 415.83 520"/></g></g></svg>