<svg id="Layer_1" data-name="Layer 1" 
    xmlns="http://www.w3.org/2000/svg" viewBox="0 0 650 1100">
    <defs>
        <!--<style>.cls-1{fill:#fc8b8b;}</style>-->
    </defs>
    <g id="Trousers">
        <g id="Stripes">
            <polygon id="element-trousers-stripes-path" class="cls-1" points="241.98 655 241.98 660 242.95 660 242.95 682.94 244.04 682.94 243.93 717.99 245.02 717.99 245.08 752.98 245.99 752.98 245.94 787.97 247.03 787.97 247.03 822.97 247.94 822.97 247.94 856.98 248.98 856.98 248.98 891.97 249.95 891.97 249.95 926.97 250.99 926.97 250.99 961.96 252.02 961.96 252.02 996.95 252.99 996.95 252.99 1017.49 250.93 1017.03 249.95 1015.94 249.95 997.01 249.03 997.01 249.03 961.96 248 961.96 248 926.97 247.03 926.97 247.03 891.97 245.99 891.97 245.99 856.92 245.02 856.92 245.02 822.97 243.99 822.97 243.99 787.92 242.95 787.92 242.95 752.92 241.98 752.92 241.98 717.93 241 717.93 241 682.94 239.97 682.94 239.97 663.95 241.18 661.83 241 657.99 241 655 241.98 655"/>
            <polygon id="element-trousers-stripes-path" class="cls-1" points="406.95 655 406.95 660 405.98 660 405.98 682.94 404.89 682.94 405 717.99 403.92 717.99 403.86 752.98 402.94 752.98 403 787.97 401.91 787.97 401.91 822.97 400.99 822.97 400.99 856.98 399.96 856.98 399.96 891.97 398.98 891.97 398.98 926.97 397.95 926.97 397.95 961.96 396.92 961.96 396.92 996.95 395.94 996.95 395.94 1017.49 398.01 1017.03 398.98 1015.94 398.98 997.01 399.9 997.01 399.9 961.96 400.93 961.96 400.93 926.97 401.91 926.97 401.91 891.97 402.94 891.97 402.94 856.92 403.92 856.92 403.92 822.97 404.95 822.97 404.95 787.92 405.98 787.92 405.98 752.92 406.95 752.92 406.95 717.93 407.93 717.93 407.93 682.94 408.96 682.94 408.96 663.95 407.76 661.83 407.93 657.99 407.93 655 406.95 655"/>
        </g>
    </g>
</svg>