<svg id="Layer_1" data-name="Layer 1" 
    xmlns="http://www.w3.org/2000/svg" viewBox="0 0 650 1100">
    <defs>
        <!--<style>.cls-1{fill:#fc8b8b;}</style>-->
    </defs>
    <g id="Trousers">
        <g id="Trousers-2" data-name="Trousers">
            <polygon id="element-trousers-base-path" class="cls-1" points="241.18 661.83 241.05 659.02 241.05 661.96 240.67 662.73 241.18 661.83"/>
            <polygon id="element-trousers-base-path" class="cls-1" points="249.95 1015.94 249.95 997.01 249.03 997.01 249.03 961.96 248 961.96 248 926.97 247.03 926.97 247.03 891.97 245.99 891.97 245.99 856.92 245.02 856.92 245.02 822.97 243.99 822.97 243.99 787.92 242.95 787.92 242.95 752.92 241.98 752.92 241.98 717.93 241 717.93 241 682.94 239.97 682.94 239.97 664.12 239.73 664.61 238.41 664.61 239.02 683.1 241.05 752.91 242.98 823.03 245.11 891.93 247.04 961.94 247.96 997 248.98 1015.09 250.43 1016.47 249.95 1015.94"/>
            <polygon id="element-trousers-base-path" class="cls-1" points="407.8 661.01 407.76 661.83 408.1 662.42 407.8 661.01"/>
            <polygon id="element-trousers-base-path" class="cls-1" points="407.93 655.45 407.93 657.99 407.92 658.19 408.72 655.46 407.93 655.45"/>
            <polygon id="element-trousers-base-path" class="cls-1" points="408.67 663.43 408.96 663.95 408.96 682.94 407.93 682.94 407.93 717.93 406.95 717.93 406.95 752.92 405.98 752.92 405.98 787.92 404.95 787.92 404.95 822.97 403.92 822.97 403.92 856.92 402.94 856.92 402.94 891.97 401.91 891.97 401.91 926.97 400.93 926.97 400.93 961.96 399.9 961.96 399.9 997.01 398.98 997.01 398.98 1015.94 398.01 1017.03 395.94 1017.49 395.94 996.95 396.92 996.95 396.92 961.96 397.95 961.96 397.95 926.97 398.98 926.97 398.98 891.97 399.96 891.97 399.96 856.98 400.99 856.98 400.99 822.97 401.91 822.97 401.91 787.97 403 787.97 402.94 752.98 403.86 752.98 403.92 717.99 405 717.99 404.89 682.94 405.98 682.94 405.98 660 406.95 660 406.95 655.44 399.07 655.36 371.94 657.02 315.35 657.82 315.28 656.68 276.94 655.98 250.95 654.98 240.44 654.44 241 657.83 241 655 241.98 655 241.98 660 242.95 660 242.95 682.94 244.04 682.94 243.93 717.99 245.02 717.99 245.08 752.98 245.99 752.98 245.94 787.97 247.03 787.97 247.03 822.97 247.94 822.97 247.94 856.98 248.98 856.98 248.98 891.97 249.95 891.97 249.95 926.97 250.99 926.97 250.99 961.96 252.02 961.96 252.02 996.95 252.99 996.95 252.99 1017.49 251.1 1017.07 271.13 1027.08 274.18 1027.08 274.18 1026.27 280.07 1025.96 308.02 1021.08 316.86 1019.05 318.08 1017.93 318.99 984.91 321.02 850.77 322.95 716.84 323.97 672.84 325 672.94 327.02 783.9 328.95 918.14 330.07 985.11 331.08 1018.14 332.1 1019.05 374.58 1027.08 378.24 1027.08 398.05 1017.02 400.08 1014.78 401 996.7 403.03 926.68 404.86 856.87 407.1 787.87 409.02 717.85 410.04 682.9 410.04 664.81 408.67 663.43"/>
        </g>
    </g>
</svg>